<svg id="Capa_1" data-name="Capa 1" xmlns="http://www.w3.org/2000/svg" xmlns:xlink="http://www.w3.org/1999/xlink" viewBox="0 0 1080 720"><defs><style>.cls-1,.cls-11,.cls-12,.cls-13,.cls-15{fill:none;}.cls-2{clip-path:url(#clip-path);}.cls-3{fill:#9d9d9c;}.cls-10,.cls-3{stroke:#9d9d9c;}.cls-10,.cls-11,.cls-12,.cls-13,.cls-15,.cls-16,.cls-3,.cls-4{stroke-miterlimit:10;}.cls-3,.cls-4{stroke-width:2px;}.cls-4{fill:#b6ccc2;stroke:#3d3935;}.cls-10,.cls-5{fill:#ededed;}.cls-6{fill:#b2b2b2;}.cls-7{fill:#706f6f;}.cls-8{fill:#c6c6c6;}.cls-9{fill:#878787;}.cls-10{stroke-width:3px;}.cls-11,.cls-12,.cls-13,.cls-16{stroke:#1d1d1b;}.cls-11{stroke-width:10px;}.cls-12,.cls-15{stroke-width:14px;}.cls-13,.cls-16{stroke-width:9px;}.cls-14,.cls-16{fill:#1d1d1b;}.cls-15{stroke:#575756;}.cls-17{fill:#f2bc8e;}.cls-18{fill:#fff;}.cls-19{fill:#36a9e1;}.cls-20{fill:#3c3c3b;}</style><clipPath id="clip-path"><rect class="cls-1" width="1080" height="720"/></clipPath></defs><g class="cls-2"><rect class="cls-3" x="1.43" y="609.8" width="1198.11" height="110.2"/><line class="cls-4" x1="264.73" y1="602.51" x2="100.44" y2="720.38"/><line class="cls-4" x1="449.22" y1="602.51" x2="356.3" y2="745.96"/><line class="cls-4" x1="971.72" y1="602.51" x2="1137.28" y2="720.38"/><line class="cls-4" x1="785.8" y1="602.51" x2="879.44" y2="745.96"/><line class="cls-4" x1="604.84" y1="602.51" x2="604.84" y2="762.12"/><rect class="cls-5" x="-37.82" y="-43.39" width="1271.12" height="650.2"/><polygon class="cls-6" points="571.22 497.59 582.03 696.15 590.13 696.15 599.59 497.59 571.22 497.59"/><polygon class="cls-7" points="609.04 497.59 617.37 634.02 623.62 634.02 630.91 497.59 609.04 497.59"/><polygon class="cls-7" points="1010.22 501.64 1018.55 638.07 1024.8 638.07 1032.09 501.64 1010.22 501.64"/><polygon class="cls-6" points="1041.29 501.64 1052.1 700.21 1060.2 700.21 1069.65 501.64 1041.29 501.64"/><rect class="cls-6" x="507.11" y="460.72" width="627.99" height="40.52"/><polygon class="cls-8" points="547.66 394.53 1075.92 394.53 1135.1 462.07 507.11 460.72 547.66 394.53"/><rect class="cls-7" x="507.11" y="460.72" width="627.99" height="20.26"/><rect class="cls-7" x="584.26" y="291.58" width="181" height="111.17"/><polygon class="cls-7" points="584.26 402.74 563.6 435.96 787.1 435.96 765.26 402.74 584.26 402.74"/><rect class="cls-7" x="599.12" y="304.27" width="152.64" height="87.12"/><path class="cls-8" d="M753.37,393H597.5V302.65H753.37Zm-152.63-3.23h149.4V305.89H600.74Z"/><polygon class="cls-7" points="600.52 402.44 590.39 426.79 771.28 426.79 757.89 402.74 600.52 402.44"/><path class="cls-8" d="M772.39,427.44h-183l10.67-25.65h.44l157.74.31Zm-181-1.3H770.18l-12.67-22.75L601,403.09Z"/><line class="cls-7" x1="597.43" y1="409.87" x2="762.08" y2="409.9"/><rect class="cls-8" x="597.43" y="409.24" width="164.65" height="1.29"/><line class="cls-7" x1="594.05" y1="417.98" x2="766.67" y2="418"/><rect class="cls-8" x="594.05" y="417.34" width="172.62" height="1.29"/><line class="cls-7" x1="612.29" y1="402.46" x2="604.18" y2="426.79"/><rect class="cls-8" x="595.41" y="413.98" width="25.64" height="1.3" transform="translate(22.48 860.44) rotate(-71.56)"/><line class="cls-7" x1="624.45" y1="402.48" x2="619.38" y2="426.79"/><rect class="cls-8" x="609.5" y="413.99" width="24.83" height="1.3" transform="translate(89.08 938.83) rotate(-78.22)"/><line class="cls-7" x1="634.24" y1="402.5" x2="631.87" y2="426.79"/><rect class="cls-8" x="620.86" y="414" width="24.4" height="1.29" transform="matrix(0.1, -1, 1, 0.1, 159.14, 1004.64)"/><rect class="cls-8" x="641.53" y="402.44" width="1.29" height="24.35"/><line class="cls-7" x1="662.27" y1="402.56" x2="660.92" y2="417.98"/><rect class="cls-8" x="653.85" y="409.62" width="15.48" height="1.29" transform="translate(195.37 1033.69) rotate(-85.01)"/><line class="cls-7" x1="697.05" y1="402.52" x2="699.75" y2="417.28"/><rect class="cls-8" x="697.75" y="402.4" width="1.29" height="15" transform="translate(-62.38 132.43) rotate(-10.37)"/><rect class="cls-8" x="680.19" y="403.22" width="1.29" height="14.76"/><line class="cls-7" x1="713.6" y1="402.88" x2="719" y2="426.79"/><rect class="cls-8" x="715.65" y="402.58" width="1.3" height="24.51" transform="translate(-73.82 168.09) rotate(-12.73)"/><line class="cls-7" x1="726.77" y1="402.56" x2="735.21" y2="426.79"/><rect class="cls-8" x="730.34" y="401.84" width="1.3" height="25.66" transform="translate(-95.73 263.59) rotate(-19.21)"/><line class="cls-7" x1="742.3" y1="402.88" x2="754.12" y2="426.79"/><rect class="cls-8" x="747.56" y="401.5" width="1.3" height="26.67" transform="translate(-106.35 374.52) rotate(-26.3)"/><rect class="cls-9" x="795.66" y="242.5" width="225.5" height="136.39"/><rect class="cls-9" x="814.17" y="258.07" width="190.16" height="106.89"/><path class="cls-8" d="M1006,366.58H812.55V256.46H1006Zm-190.16-3.23h186.92V259.69H815.79Z"/><polygon class="cls-9" points="895.4 378.88 895.4 415.47 909.05 415.47 909.25 378.88 895.4 378.88"/><polygon class="cls-9" points="901.39 413.68 925.68 419.35 879.45 419.35 901.39 413.68"/><rect class="cls-10" x="125.63" y="51.9" width="215.9" height="295.26"/><rect class="cls-10" x="134.64" y="62.56" width="197.78" height="275.48"/><path class="cls-11" d="M-102.83,473.36s85-97.35,219.38-111.06"/><line class="cls-12" x1="108.32" y1="340.36" x2="211.15" y2="547.4"/><path class="cls-11" d="M-17.82,520s21.93-23.31,39.76-67.19,103-78.92,103-78.92"/><circle class="cls-12" cx="213.72" cy="551" r="140.37"/><circle class="cls-12" cx="212.87" cy="551.86" r="21.25"/><path class="cls-13" d="M33.44,569.89s7.92,18.38,17.61,11.79-6.66-120.15,94.27-171.33c68.89-34.94,131.18-5.07,131.18-5.07"/><path class="cls-14" d="M191.61,417.83c2.59,8.92,4.78,17.92,6.84,26.94,1.07,4.51,2,9,3,13.56l2.76,13.6,2.56,13.64c.77,4.56,1.62,9.11,2.32,13.69,1.49,9.13,2.83,18.3,3.79,27.54-2.59-8.92-4.79-17.92-6.85-26.95-1.07-4.5-2-9-3-13.55l-2.76-13.6-2.55-13.65c-.78-4.56-1.62-9.11-2.33-13.68C193.92,436.23,192.57,427.07,191.61,417.83Z"/><path class="cls-14" d="M287.94,443.88c-4.42,8.12-9.16,16-14,23.83-2.4,3.93-4.92,7.78-7.38,11.67L259,490.93l-7.74,11.43c-2.64,3.76-5.22,7.57-7.93,11.3-5.34,7.49-10.81,14.91-16.6,22.1,4.41-8.12,9.15-16,14-23.83,2.4-3.94,4.92-7.78,7.38-11.67l7.56-11.55,7.75-11.42c2.64-3.77,5.22-7.57,7.93-11.3C276.68,458.5,282.15,451.08,287.94,443.88Z"/><path class="cls-14" d="M234.12,551.86c9-.83,18.11-1.26,27.16-1.56,4.53-.18,9.06-.22,13.59-.33l13.58-.11L302,550c4.53.11,9.06.15,13.59.34,9.05.29,18.11.72,27.16,1.56-9,.83-18.11,1.26-27.16,1.56-4.53.18-9.06.22-13.59.33l-13.58.11-13.58-.12c-4.53-.1-9.06-.14-13.59-.33C252.23,553.12,243.17,552.68,234.12,551.86Z"/><path class="cls-14" d="M235.12,539.54c8.61-2.93,17.31-5.48,26-7.88,4.36-1.25,8.75-2.35,13.13-3.51l13.18-3.3,13.23-3.08c4.42-.95,8.83-2,13.28-2.86,8.87-1.84,17.77-3.54,26.77-4.85-8.61,2.93-17.31,5.48-26,7.88-4.36,1.25-8.75,2.34-13.13,3.51l-13.18,3.29-13.23,3.08c-4.42.95-8.83,2-13.28,2.86C253,536.52,244.12,538.22,235.12,539.54Z"/><path class="cls-14" d="M226.72,573.11c5.8,7.64,11.27,15.5,16.62,23.43,2.71,4,5.29,8,7.93,12L259,620.57l7.56,12.18c2.46,4.11,5,8.17,7.37,12.31,4.86,8.25,9.59,16.57,14,25.1-5.81-7.65-11.28-15.5-16.63-23.43-2.71-4-5.29-8-7.93-12l-7.74-12.07-7.56-12.19c-2.46-4.1-5-8.17-7.37-12.31C235.86,590,231.12,581.64,226.72,573.11Z"/><path class="cls-14" d="M226.72,573.11c5.8,7.64,11.27,15.5,16.62,23.43,2.71,4,5.29,8,7.93,12L259,620.57l7.56,12.18c2.46,4.11,5,8.17,7.37,12.31,4.86,8.25,9.59,16.57,14,25.1-5.81-7.65-11.28-15.5-16.63-23.43-2.71-4-5.29-8-7.93-12l-7.74-12.07-7.56-12.19c-2.46-4.1-5-8.17-7.37-12.31C235.86,590,231.12,581.64,226.72,573.11Z"/><path class="cls-14" d="M226.72,573.11c5.8,7.64,11.27,15.5,16.62,23.43,2.71,4,5.29,8,7.93,12L259,620.57l7.56,12.18c2.46,4.11,5,8.17,7.37,12.31,4.86,8.25,9.59,16.57,14,25.1-5.81-7.65-11.28-15.5-16.63-23.43-2.71-4-5.29-8-7.93-12l-7.74-12.07-7.56-12.19c-2.46-4.1-5-8.17-7.37-12.31C235.86,590,231.12,581.64,226.72,573.11Z"/><path class="cls-14" d="M226.72,573.11c5.8,7.64,11.27,15.5,16.62,23.43,2.71,4,5.29,8,7.93,12L259,620.57l7.56,12.18c2.46,4.11,5,8.17,7.37,12.31,4.86,8.25,9.59,16.57,14,25.1-5.81-7.65-11.28-15.5-16.63-23.43-2.71-4-5.29-8-7.93-12l-7.74-12.07-7.56-12.19c-2.46-4.1-5-8.17-7.37-12.31C235.86,590,231.12,581.64,226.72,573.11Z"/><path class="cls-14" d="M226.72,573.11c5.8,7.64,11.27,15.5,16.62,23.43,2.71,4,5.29,8,7.93,12L259,620.57l7.56,12.18c2.46,4.11,5,8.17,7.37,12.31,4.86,8.25,9.59,16.57,14,25.1-5.81-7.65-11.28-15.5-16.63-23.43-2.71-4-5.29-8-7.93-12l-7.74-12.07-7.56-12.19c-2.46-4.1-5-8.17-7.37-12.31C235.86,590,231.12,581.64,226.72,573.11Z"/><path class="cls-14" d="M73.14,557.47c9.56-.77,19.13-1.14,28.69-1.37,4.78-.15,9.56-.16,14.35-.23l14.34,0,14.34.2c4.78.14,9.56.21,14.34.43,9.56.36,19.12.85,28.68,1.75-9.57.77-19.14,1.14-28.7,1.37-4.78.15-9.56.16-14.34.24H130.49l-14.34-.21c-4.78-.14-9.56-.21-14.34-.43C92.25,558.86,82.69,558.36,73.14,557.47Z"/><path class="cls-14" d="M92.43,481.85c8.68,4.09,17.16,8.52,25.58,13.07,4.22,2.25,8.38,4.62,12.56,6.93L143,509l12.34,7.31c4.08,2.5,8.19,4.93,12.23,7.49,8.12,5.07,16.17,10.25,24,15.78-8.68-4.09-17.16-8.52-25.58-13.08-4.22-2.24-8.37-4.61-12.56-6.92L141,512.42l-12.35-7.31c-4.07-2.5-8.19-4.93-12.23-7.5C108.33,492.55,100.28,487.37,92.43,481.85Z"/><path class="cls-14" d="M113.56,454c7.47,6,14.68,12.33,21.78,18.73,3.58,3.18,7.06,6.46,10.58,9.69l10.43,9.85,10.28,10c3.38,3.39,6.8,6.72,10.13,10.17,6.7,6.83,13.3,13.76,19.62,21-7.48-6-14.68-12.32-21.78-18.73-3.58-3.18-7.06-6.46-10.59-9.69l-10.42-9.85-10.28-10c-3.37-3.39-6.8-6.73-10.12-10.17C126.49,468.1,119.89,461.17,113.56,454Z"/><path class="cls-14" d="M220.24,531.1c.87-9.55,2.13-19,3.53-28.51.66-4.74,1.46-9.45,2.2-14.17l2.42-14.14,2.64-14.1c.95-4.69,1.83-9.39,2.85-14.06,2-9.36,4.1-18.69,6.6-28-.87,9.56-2.12,19-3.52,28.51-.66,4.74-1.47,9.45-2.21,14.18L232.33,475l-2.64,14.1c-.95,4.69-1.84,9.39-2.86,14.06C224.85,512.5,222.74,521.84,220.24,531.1Z"/><path class="cls-14" d="M234,535.76c7.37-6.15,15-12,22.64-17.68,3.81-2.89,7.71-5.66,11.57-8.48l11.7-8.3,11.82-8.12c4-2.64,7.93-5.35,12-7.93,8-5.23,16.1-10.34,24.42-15.13-7.37,6.15-15,12-22.64,17.69-3.81,2.89-7.71,5.65-11.57,8.48l-11.7,8.29-11.83,8.11c-4,2.65-7.93,5.35-12,7.94C250.41,525.85,242.32,531,234,535.76Z"/><path class="cls-14" d="M219,575.89c3.49,8.94,6.61,18,9.59,27.08,1.53,4.53,2.91,9.11,4.37,13.66l4.16,13.73L241,644.15c1.24,4.62,2.56,9.21,3.73,13.85,2.42,9.26,4.7,18.55,6.6,28-3.5-8.94-6.62-18-9.6-27.08-1.53-4.53-2.91-9.11-4.37-13.66l-4.15-13.73L229.3,617.7c-1.25-4.62-2.56-9.22-3.73-13.85C223.15,594.59,220.86,585.3,219,575.89Z"/><path class="cls-14" d="M237.65,559.51c9.43,1.78,18.75,3.93,28,6.22,4.66,1.1,9.27,2.35,13.91,3.53L293.44,573l13.79,4c4.58,1.4,9.17,2.71,13.73,4.18,9.13,2.85,18.22,5.84,27.21,9.21-9.44-1.77-18.76-3.92-28.05-6.2-4.66-1.11-9.27-2.36-13.91-3.54l-13.84-3.75-13.79-4c-4.57-1.39-9.17-2.72-13.72-4.18C255.73,565.87,246.63,562.88,237.65,559.51Z"/><path class="cls-14" d="M202.24,572.56c-2.38,9.3-5.14,18.46-8,27.58-1.41,4.57-3,9.1-4.43,13.65l-4.65,13.57-4.84,13.5c-1.69,4.47-3.31,9-5.07,13.42-3.44,8.93-7,17.8-11,26.55,2.38-9.3,5.13-18.46,8-27.58,1.41-4.58,3-9.1,4.43-13.65L181.36,626l4.85-13.49c1.69-4.48,3.31-9,5.07-13.43C194.72,590.19,198.29,581.31,202.24,572.56Z"/><path class="cls-14" d="M234,563.32c8.42,4.59,16.63,9.51,24.77,14.55,4.09,2.48,8.09,5.09,12.14,7.64l12,7.83,11.9,8c3.92,2.73,7.89,5.4,11.77,8.2,7.81,5.53,15.54,11.17,23.05,17.15-8.43-4.59-16.64-9.51-24.78-14.55-4.08-2.48-8.09-5.09-12.14-7.64l-12-7.84-11.9-8c-3.92-2.73-7.89-5.41-11.77-8.2C249.25,574.93,241.52,569.29,234,563.32Z"/><path class="cls-14" d="M211.93,576.92c.7,9.57,1,19.13,1.17,28.7.12,4.78.09,9.56.14,14.35l-.09,14.34-.3,14.34c-.17,4.78-.27,9.56-.53,14.34-.42,9.55-1,19.11-1.94,28.66-.71-9.57-1-19.14-1.18-28.71-.12-4.78-.09-9.56-.14-14.34l.09-14.35.31-14.34c.17-4.77.28-9.55.53-14.33C210.41,596,211,586.47,211.93,576.92Z"/><path class="cls-14" d="M191.61,573.11c-4.93,6.75-10.17,13.24-15.5,19.63-2.64,3.22-5.39,6.35-8.09,9.52l-8.24,9.37-8.41,9.23c-2.86,3-5.67,6.1-8.58,9.08-5.78,6-11.66,11.91-17.83,17.55,4.93-6.75,10.16-13.24,15.5-19.63,2.64-3.23,5.39-6.35,8.08-9.53L156.8,609l8.41-9.23c2.86-3,5.67-6.1,8.58-9.07C179.57,584.66,185.44,578.76,191.61,573.11Z"/><path class="cls-14" d="M186.23,564.42c-7.67,3.34-15.46,6.3-23.29,9.13-3.91,1.45-7.86,2.76-11.79,4.14l-11.85,3.93-11.91,3.72c-4,1.17-8,2.41-12,3.51-8,2.27-16.07,4.4-24.25,6.16,7.67-3.34,15.46-6.31,23.29-9.13,3.91-1.46,7.86-2.76,11.79-4.14l11.85-3.93L150,574.09c4-1.17,8-2.4,12-3.5C170,568.32,178.05,566.18,186.23,564.42Z"/><path class="cls-14" d="M191.61,551.86c-9.78-1.86-19.47-4.1-29.11-6.48-4.84-1.15-9.63-2.43-14.44-3.66l-14.38-3.88-14.33-4.08c-4.75-1.44-9.52-2.8-14.26-4.31-9.49-2.94-18.94-6-28.28-9.47,9.79,1.85,19.47,4.09,29.12,6.46,4.83,1.15,9.62,2.45,14.44,3.67L134.75,534l14.32,4.09c4.75,1.44,9.52,2.8,14.26,4.31C172.82,545.33,182.27,548.4,191.61,551.86Z"/><path class="cls-15" d="M0,281.4l60.33-35.65s23.31-31.53,48,46.62c0,0,5.24,3.23-16.45,15.08-15.06,8.23,16.45,39.77,16.45,39.77"/><polygon class="cls-16" points="122.17 336.19 92.43 349.9 122.17 405.96 142.02 393.39 122.17 336.19"/><path class="cls-17" d="M432.16,120.73s-82.9-14.23-89.73,19.93-5.13,141.76,32.45,189.59c0,0,14.36,13.09,57.28,13.09s67.58-14.23,67.58-14.23,22-1.17,30.68-189.59C531.93,106.56,432.16,120.73,432.16,120.73Z"/><path class="cls-14" d="M432.16,346.52c-43.65,0-58.8-13.36-59.42-13.93l-.36-.38c-21.17-26.95-29.92-70.08-33.54-101.52-4.43-38.53-2.86-74,.47-90.66,7.14-35.71,85.21-23.78,92.9-22.52,7.08-1,75.55-9.79,95.54,8.38a16.89,16.89,0,0,1,5.85,13.77c-7.75,168.63-25.91,190.42-32.72,192.45C497.24,334.1,472.84,346.52,432.16,346.52Zm-55-18.5c1.65,1.32,16.49,12.14,55,12.14,41.59,0,65.75-13.67,66-13.81l.66-.38h.27c2.13-1.43,20.45-18.51,28.17-186.59a10.64,10.64,0,0,0-3.78-8.78c-15.3-13.91-70.78-9.56-90.86-6.71l-.49.07-.5-.09c-22.21-3.81-81-8.1-86.08,17.42C338.57,176.13,341,281.55,377.18,328Z"/><path class="cls-18" d="M441.29,243.48s28.93-37.44,58.22,3C499.51,246.5,470.33,262.81,441.29,243.48Z"/><path class="cls-14" d="M472.16,255a56.93,56.93,0,0,1-32-9.74l-1.9-1.26,1.39-1.79c.54-.69,13.26-16.93,30.88-16.61,11.07.18,21.41,6.8,30.74,19.68l1.39,1.93-2.08,1.16A64.21,64.21,0,0,1,472.16,255ZM444.5,243c22.44,13.61,44.8,5.76,51.77,2.7-8.07-10.4-16.74-15.74-25.82-15.89C458.22,229.59,448.19,239,444.5,243Z"/><path class="cls-18" d="M422.67,242.88s-24.61-39.26-55.71,0C367,242.88,394.81,264.62,422.67,242.88Z"/><path class="cls-14" d="M396,254.6c-17.15,0-30.12-9.9-30.32-10L364,243.23l1.33-1.67c10-12.67,20.57-18.81,31.33-18.21,16.69.92,27.39,17.69,27.83,18.4l1,1.62L424,244.55C414.31,252.08,404.61,254.6,396,254.6ZM370,242.45c6.24,4.11,27.68,15.82,49.72,0-3-4-11.69-14.2-23.38-14.83C387.56,227.11,378.71,232.11,370,242.45Z"/><ellipse class="cls-14" cx="470.96" cy="240.49" rx="8.59" ry="7.28"/><path class="cls-14" d="M471,249.36c-5.61,0-10.18-4-10.18-8.87s4.57-8.86,10.18-8.86,10.18,4,10.18,8.86S476.58,249.36,471,249.36Zm0-14.56c-3.86,0-7,2.56-7,5.69s3.14,5.7,7,5.7,7-2.56,7-5.7S474.82,234.8,471,234.8Z"/><ellipse class="cls-14" cx="396.1" cy="239.4" rx="8.61" ry="7.25"/><path class="cls-14" d="M396.1,248.24c-5.62,0-10.2-4-10.2-8.84s4.58-8.83,10.2-8.83,10.19,4,10.19,8.83S401.72,248.24,396.1,248.24Zm0-14.5c-3.87,0-7,2.54-7,5.66s3.15,5.66,7,5.66,7-2.54,7-5.66S400,233.74,396.1,233.74Z"/><path class="cls-14" d="M446.59,191.65c4.18-.84,8.27-1.51,12.42-2.12s8.31-1.12,12.5-1.49,8.41-.65,12.67-.65a73.52,73.52,0,0,1,13,1h0l.54.08.29.2a10.12,10.12,0,0,1,1,.81c.29.26.56.52.83.79.53.53,1,1.07,1.5,1.64a27,27,0,0,1,2.5,3.5,26.17,26.17,0,0,1,1.88,3.74A28.21,28.21,0,0,1,507,203a27.65,27.65,0,0,0-2.59-3,24.45,24.45,0,0,0-2.92-2.5,23.39,23.39,0,0,0-3.18-2c-.54-.28-1.09-.52-1.63-.74-.28-.11-.55-.22-.82-.3a2.51,2.51,0,0,0-.69-.18l.83.28h0a66.75,66.75,0,0,0-11.76-.85c-4,0-8.07.27-12.12.62s-8.11.86-12.16,1.45-8.11,1.27-12.05,2.06Z"/><path class="cls-14" d="M419.39,217.51c-2.34-.44-4.9-.88-7.36-1.27s-5-.73-7.45-1a102.08,102.08,0,0,0-14.78-.63,54.39,54.39,0,0,0-14.19,2.29,71,71,0,0,0-6.82,2.39c-2.26,1-4.53,2.12-7.05,3.41a19,19,0,0,1,4.4-7.16,25.82,25.82,0,0,1,6.9-5,38,38,0,0,1,8-2.81,52,52,0,0,1,8.26-1.3,68.24,68.24,0,0,1,16.37.72,71.38,71.38,0,0,1,7.94,1.69,56.7,56.7,0,0,1,7.76,2.62Z"/><path class="cls-14" d="M413.92,264.69c-1.16,1.12-2.28,2.24-3.3,3.41a19.82,19.82,0,0,0-1.37,1.79,5.29,5.29,0,0,0-.83,1.7,2,2,0,0,0,0,.31c0,.06,0,.15.06.15s.1,0,.14,0a6.72,6.72,0,0,0,1.24.37,28.7,28.7,0,0,0,4.27.25l18.72.27c6.24.07,12.46.12,18.67,0,1.54,0,3.14-.07,4.61-.13a15,15,0,0,0,2.07-.21,5.12,5.12,0,0,0,1.48-.45,1.84,1.84,0,0,0,.25-.13c.07-.05.08-.25,0-.5a5.21,5.21,0,0,0-.89-1.76,25.5,25.5,0,0,0-3.16-3.47,16.67,16.67,0,0,1,4.4,2.21,6.7,6.7,0,0,1,1.93,2,3.22,3.22,0,0,1-.29,3.76,7,7,0,0,1-2.62,1.83,18,18,0,0,1-2.55.83c-1.65.4-3.19.7-4.8,1a110.72,110.72,0,0,1-19.21,1.36,124.16,124.16,0,0,1-19.13-1.67,24.33,24.33,0,0,1-5.07-1.26,6.47,6.47,0,0,1-2.8-2,3.52,3.52,0,0,1-.69-2.15,3.71,3.71,0,0,1,.15-1,5.06,5.06,0,0,1,.35-.81,7.93,7.93,0,0,1,1.86-2.17,14.71,14.71,0,0,1,2.08-1.45A23,23,0,0,1,413.92,264.69Z"/><path class="cls-14" d="M351.78,266.1s21.66,7.78,24.89,22.28S392,326.22,413.7,325s4.81-14.8,21.23-16.1c20.63-1.63,3.94,16.91,26.38,13.69s47.92-23.35,38.2-41.87,20.3-16,20.3-16,.74-5.86-2.33,14.48c0,0-4.91,36.5-15.49,48.42s-65.34,15.75-65.34,15.75-27.14,4.22-60.27-10.68c0,0-17.27-18.35-24.6-51.49C351.78,281.17,330.85,256,351.78,266.1Z"/><path class="cls-18" d="M391.06,280.73s45.59,10.06,91.08-2.42c0,0-15.64,24.56-47.27,23.35S391.06,280.73,391.06,280.73Z"/><path class="cls-14" d="M437.09,302.76c-.75,0-1.5,0-2.26,0-31.83-1.21-44.16-20.61-44.67-21.44l-1.31-2.13,2.44.54c.45.1,45.87,9.86,90.57-2.4l2.65-.73L483,278.88C482.88,279.13,467.46,302.76,437.09,302.76Zm-43.53-20.47c4.19,5,16.88,17.38,41.35,18.31,24.8,1,39.71-14.46,44.58-20.49C441.56,289.71,403.84,284.14,393.56,282.29Z"/><path class="cls-17" d="M517.48,282.31s31.44-6.72,28.64-26.3-23.25-14.87-23.25-14.87Z"/><path class="cls-14" d="M513.74,286.36,520,238.54l2.15-.5c.44-.1,10.91-2.43,18.9,3.06,4.52,3.1,7.29,8,8.22,14.46,3.18,22.27-29.73,29.56-31.13,29.86Zm3.07-7.16Zm8.9-35.27-4.46,34c7.92-2.54,23.49-9.14,21.72-21.5-.66-4.65-2.51-8-5.49-10.1C533.59,243.67,528.53,243.67,525.71,243.93Z"/><path class="cls-17" d="M354.06,290,344,247.71s-18.88-13-21.68,11.1S354.06,290,354.06,290Z"/><path class="cls-14" d="M358.31,294.13l-4.9-1c-1.52-.31-37.37-8-34.27-34.68,1-8.51,4-14,9.07-16.27,7.91-3.6,17.18,2.65,17.57,2.92l1,.69ZM333.62,247.4a6.57,6.57,0,0,0-2.79.56c-3.55,1.63-4.88,7-5.37,11.21-1.83,15.74,15.43,23.44,24.26,26.33l-8.53-35.78A16.77,16.77,0,0,0,333.62,247.4Z"/><path class="cls-17" d="M516.45,620.29s27.73,0,21.48-22.9l109.2-92.87L461.31,372.21V340.56s-16.55,7-54.57,2.78v34L245.32,514.7l114.19,81s.76,16.07,16.65,19.88c0,0,7.86,2.51,19.89-5.82,18-12.47-20.72-68.81-30.52-22.39l-63-72.69,51.49-35.62,48.53,141.21s38.3,14.05,88.27,1.28l41-142.49,60.74,40.71-62.19,67.43s-15.72-37.77-30.41,2.5C488.21,622.12,497.13,624,516.45,620.29Z"/><path class="cls-14" d="M448.06,630.15c-27.37,0-45.48-6.47-46.57-6.87l-1.42-.52-3.31-9.63c-11.76,7.7-20.07,5.91-21.39,5.55-13.25-3.21-18-14.48-18.88-21.21L240.14,514.93l163.42-139.1v-36l3.53.39c36.49,4,52.83-2.49,53-2.55l4.4-1.82v34.76L652.3,504.3,541.48,598.55c1.29,6.28.32,11.59-2.9,15.81-6.4,8.39-19.53,9-21.81,9.11-8.81,1.66-17.76,2.77-22.4-2.6l-1,3.32-1.76.45A175.79,175.79,0,0,1,448.06,630.15Zm-43-12.38c7.16,2.24,40.95,11.48,83.23,1.16l3.81-13.22a102.1,102.1,0,0,1,4.88-17L530,474l67.45,45.2L529.41,593l-1.91-4.58c-1.93-4.63-7.51-14.11-12.48-14.11h-.09c-3.77.08-8.1,6-11.88,16.38l-4.77,16.57c-.77,4.66-.48,7.81.88,9.41,2.36,2.77,9.76,1.8,16.7.48l.29-.06h.29c.12,0,12.14-.11,17.1-6.63,2.28-3,2.73-7.12,1.33-12.25l-.54-2L642,504.74,458.13,373.85v-29c-7,1.81-22.51,4.46-48.21,2v31.91L250.49,514.47,362.62,594l.07,1.55c0,.55.91,13.75,14.21,16.94l.23.06c.22.07,6.74,1.78,17.11-5.4.13-.09.26-.18.38-.28l-11.34-33a8.83,8.83,0,0,0-4.79-1.35c-4.3.27-7.8,5.78-9.85,15.51l-1.33,6.26L297.85,514.1l57.85-40,32.9,95.73c5.83,4.27,10.84,11.7,13.42,19.12,2.67,7.68,2.52,14.47-.25,19.23ZM395,588.3l1.88,5.45c-.29-1.15-.6-2.11-.81-2.74C395.7,590.09,395.34,589.19,395,588.3ZM515,568c7.55,0,13.3,8.28,16.24,13.67l56.52-61.28-54-36.22-24.65,85.61a11.07,11.07,0,0,1,5.7-1.78ZM307.29,515.3,364,580.77c3.73-11.38,9.56-14.29,14.09-14.58a12.4,12.4,0,0,1,2.58.12l-28.25-82.23Z"/><path class="cls-19" d="M406.74,377.3s-.5,25.17,29.86,25.17,24.71-30.26,24.71-30.26l120,83.05-30.68,37.82-18.7-14-41,142.49s-38.71,12-88.27-1.28l-48.53-144L339.3,489.29l-32.75-29.94Z"/><path class="cls-14" d="M450.27,629.78a186.8,186.8,0,0,1-48.51-6.42l-1.64-.44L352.57,481.79l-13.31,11.77-37.57-34.34,108.37-88.74-.14,6.87c0,.19,0,8.71,6.17,14.95,4.59,4.64,11.49,7,20.51,7,7.9,0,13.73-2.21,17.36-6.57,6.41-7.73,4.25-19.8,4.22-19.93l-1.42-7.59L585.9,454.6l-34.77,42.85-17.46-13.07L493.44,624.09l-1.64.51C490.77,624.92,474.71,629.78,450.27,629.78Zm-45.22-12.12c41.68,10.77,75.59,3.3,83.25,1.32l41.81-145.21,19.94,14.93,26.6-32.78L464.9,378.56c-.11,5.24-1.29,12.48-6,18.22-4.89,5.89-12.37,8.87-22.25,8.87-10.83,0-19.27-3-25.1-9a28.07,28.07,0,0,1-7.16-13.31l-92.94,76.1L339.33,485l16.21-14.34Z"/><path class="cls-20" d="M497.82,807.43l-45.77-162H438.52l-36.16,161.4-15.42.58,15.65-187.14s33.1,14,88.27,1.28l18.53,185.86Z"/><path class="cls-14" d="M383.47,810.74l16.31-195.09,4.05,1.72c.31.13,33,13.43,86.31,1.1l3.52-.82,19.24,193H495.41l-45.76-162h-8.59l-36.13,161.3Zm116.75-6.49h5.65l-17.82-178.8c-43.21,9.28-72.36,2.46-82.64-.78l-15,179.45,9.4-.35L436,642.27h18.49Z"/><path class="cls-19" d="M406.74,377.3s-19.27,6.31-10.66,21.05,36.08,3.93,36.08,3.93S410,406,406.74,377.3Z"/><path class="cls-14" d="M412.76,409.28c-7.52,0-15.21-2.1-19.43-9.32-2.79-4.79-3.39-9.39-1.76-13.68,3.16-8.31,13.73-11.85,14.18-12l3.7-1.21.45,3.87c1,8.79,4,15.09,8.76,18.75a18.75,18.75,0,0,0,13,3.45l28.65-4.53-27,10.62C432.62,405.51,422.85,409.28,412.76,409.28Zm-8.52-27.38c-2.61,1.44-5.62,3.72-6.73,6.66-.92,2.43-.49,5.11,1.31,8.19,3.54,6.08,11.62,6.71,18.79,5.82a23.32,23.32,0,0,1-2.7-1.75C409.48,396.74,405.9,390.39,404.24,381.9Z"/><path class="cls-19" d="M461.31,372.21s21.4,9.55,9.73,28.6-34.44,1.66-34.44,1.66S467.58,402.08,461.31,372.21Z"/><path class="cls-14" d="M456,412.91c-10.83,0-20.85-7.55-21.32-7.91l-7.31-5.59,9.2-.12c.12,0,12.54-.3,18.78-8.11,3.52-4.41,4.48-10.57,2.86-18.32l-1.28-6.09,5.68,2.54c.46.2,11.17,5.08,14.27,15.09,1.77,5.72.72,11.8-3.12,18.07-3.45,5.62-8.1,9-13.83,10.08A20.9,20.9,0,0,1,456,412.91Zm-10.09-8.76c3.76,1.65,8.47,3,12.88,2.15,3.93-.74,7.05-3.08,9.55-7.15,2.84-4.63,3.67-8.95,2.48-12.84a17,17,0,0,0-5.5-7.73c.23,6.58-1.46,12.14-5,16.6C456.28,400.17,450.66,402.78,445.9,404.15Z"/><rect class="cls-14" x="432.79" y="403.33" width="6.36" height="54.02" transform="translate(-9.93 10.3) rotate(-1.34)"/><path class="cls-14" d="M415.18,196.77s16.23-14.06,11.76-24.13-15.67-14-15.67-14-12.31,1.12-11.75-7.28,4.73-22.94-14.15-20.7-23.63,14.55-23.63,14.55-5.52,17.9,5.22,26.86S356.43,185,356.43,185s-14,3.5-12.31,11.82,12.87,8.87,11.19,25.94-11.33,25-11.33,25-8.81-6.15-13.29,1.36c0,0,0-18.41-10.07-23.64S305,221.3,305,210.4s19-14.26,16.79-23.78S291,168.72,298.8,150.25s23.5-3.82,37.49-19.81S335.17,96,371.54,89.82s21.82,15.67,45.88,11.19,11.75-22.38,36.37-18.46,16.23,22.38,40.29,28.53S526,99.7,540,117.7s-11.2,30.32-3.92,51,14,3.36,19,17.9-20.14,27.26-22.38,38.81,0,13.55,0,13.55l-9.82,2.16,4-42.14s-8.69.49-12-17.41-15.28-18.47-15.28-18.47-31.17,17.12-42.36,2.41S445.4,200.2,415.18,196.77Z"/></g></svg>