<svg xmlns="http://www.w3.org/2000/svg" width="48" height="48" viewBox="0 0 48 48"><g transform="translate(0 -1004.362)" stroke-linecap="round" stroke-linejoin="round"><path d="M22.549 1027.25h.082-.082z" stroke="#009aa9" stroke-width=".029" stroke-opacity=".945"/><ellipse cx="23.983" cy="1028.382" rx="23.114" ry="23.112" fill="#eee" stroke="#222" stroke-width="1.737"/><path d="M38.549 1012.286c-3.642-.873-8.025-2.035-11.815-2.19v-3.066c5.12.414 10.803 3.76 11.815 5.256z" stroke="#000" stroke-width="1.5"/><path d="M2.056 1025.715c.008-.625.692-3.38 1.164-4.688 2.991-8.28 10.627-15.332 19.412-14.592l1.026.086v4.638l-1.026.04c-5.474.213-9.167 3.11-10.989 6.789-.494.996-.572 1.343-.569 2.5.003 1.03.095 1.514.393 2.077.493.932 1.908 2.04 3.195 2.883l1.146.75c-4.388-.228-9.802.026-13.72 0zm24.113 18.968c11.435-.638 17.27-9.616 8.038-16.383 4.375-.01 7.622-.048 11.997-.054-.642 13.492-10.6 20.91-19.99 21.846z" stroke="#222" stroke-width=".31"/><path d="M7.361 1042.374c5.382 1.294 11.015 2.463 16.044 2.729v5.326c-6.459-.21-13.1-3.941-16.044-8.055z" stroke="#000" stroke-width="1.5"/></g><path d="M2.272 23h43.982M25 45.87V1.478" fill="#999" fill-rule="evenodd" stroke="#69bfc8" stroke-width="2.5" stroke-linecap="round" stroke-linejoin="round"/><ellipse cx="23.983" cy="24.019" rx="23.114" ry="23.112" fill="#eee" fill-opacity="0" stroke="#009aa9" stroke-width="2.2" stroke-linecap="round" stroke-linejoin="round" opacity=".99"/><path d="M4.342 35.784s30.045 9.883 33.318-3.405C39.962 23.035 25 23 25 23S6.55 21.74 13.872 11.929C21.265 4.655 32.91 8.29 42.05 9.992" fill="none" fill-rule="evenodd" stroke="#009aa9" stroke-width="2.5" stroke-linecap="round" stroke-linejoin="round"/></svg>